<svg width="832" height="798" viewBox="0 0 832 798" fill="none" xmlns="http://www.w3.org/2000/svg">
<path d="M586.187 400.81C583.188 397.657 580.488 394.704 577.646 391.895C575.614 389.887 573.909 386.966 570.287 390.176C566.64 393.409 568.156 395.886 570.662 398.556C576.822 405.115 583.002 411.655 589.155 418.221C593.254 422.597 593.676 429.835 589.868 434.356C589.009 435.376 587.306 435.795 585.911 436.235C568.448 441.752 550.907 447.032 533.54 452.835C529.167 454.296 527.44 451.653 525.063 449.545C512.818 438.687 494.951 441.904 487.442 456.422C484.456 462.195 484.512 468.289 486.211 474.406C486.87 476.779 487.13 478.616 484.869 480.589C468.931 494.499 453.092 508.523 437.336 522.637C435.002 524.727 433.054 525.105 430.218 523.791C423.425 520.642 417.656 523.583 413.002 528.137C408.454 532.587 406.72 538.534 409.398 544.673C411.03 548.414 410.697 550.544 407.672 553.628C384.216 577.532 360.992 601.664 337.869 625.891C334.965 628.933 332.613 629.412 328.797 627.817C311.065 620.403 294.089 611.583 278.047 601.022C275.279 599.2 273.423 598.934 270.537 600.768C238.565 621.077 205.215 638.884 170.58 654.165C143.43 666.143 115.581 676.278 86.271 681.775C76.0692 683.688 65.7608 684.522 55.502 682.475C38.2437 679.033 29.0671 664.969 32.2459 647.681C34.9231 633.121 41.8748 620.398 49.2611 607.939C72.2077 569.231 100.018 534.134 129.812 500.547C135.782 493.817 141.851 487.174 147.961 480.571C151.699 476.532 152.438 476.812 154.408 482.118C157.768 491.168 161.124 500.222 164.733 509.173C165.868 511.987 165.748 513.889 163.681 516.312C147.227 535.598 131.701 555.59 119.143 577.696C114.295 586.231 109.73 594.922 107.938 604.791C106.321 613.694 111.299 620.18 120.384 620.698C129.789 621.235 138.505 618.326 147.107 615.221C187.241 600.737 224.556 580.51 261.244 558.997C286.969 543.912 312.587 528.649 337.52 512.286C379.877 484.487 420.957 454.894 460.993 423.842C500.498 393.202 539.287 361.684 576.71 328.533C607.26 301.471 637.826 274.4 666.604 245.421C683.639 228.267 700.272 210.726 712.691 189.738C715.495 184.999 717.953 180.047 718.736 174.511C719.922 166.124 715.788 161.051 707.369 160.266C698.484 159.437 690.191 162.076 681.998 164.843C658.106 172.914 635.27 183.413 613.259 195.675C609.749 197.631 607.563 197.506 604.592 194.676C598.203 188.589 591.232 183.142 584.007 178.041C582.418 176.919 580.496 176.091 579.513 173.827C580.844 171.272 583.496 170.084 585.826 168.65C620.117 147.542 656.185 130.031 693.852 115.86C714.735 108.003 735.839 100.842 758.211 98.2489C766.496 97.2886 774.54 97.9266 782.33 100.599C797.192 105.699 804.422 120.005 800.782 136.515C797.971 149.265 791.588 160.369 784.717 171.242C770.332 194.005 753.013 214.476 735.057 234.422C707.941 264.543 678.888 292.714 648.519 319.531C645.419 322.268 643.321 325.376 641.883 329.26C631.656 356.897 621.289 384.481 610.935 412.071C608.917 417.446 602.58 418.574 598.61 414.307C594.525 409.917 590.485 405.485 586.187 400.81Z" fill="#333333"/>
<path d="M332.889 483.939C299.291 506.298 265.003 526.834 230.313 546.725C226.503 548.91 224.563 548.259 222.229 544.907C203.953 518.658 190.611 490.292 183.432 458.96C175.261 423.298 175.148 387.651 181.935 351.871C183.515 343.543 185.628 335.311 188.302 327.238C189.091 324.854 190.397 323.296 192.691 322.186C215.031 311.375 237.373 300.565 259.604 289.534C264.362 287.173 267.303 286.87 271.269 291.696C279.049 301.164 289.747 305.095 302.069 303.134C305.304 302.619 307.013 303.572 308.564 306.182C317.241 320.789 325.975 335.363 334.782 349.891C336.071 352.016 336.1 353.533 334.657 355.717C329.236 363.919 328.322 372.444 334.121 380.909C335.824 383.396 335.124 384.842 333.243 386.86C309.046 412.813 284.945 438.856 260.836 464.89C256.649 469.412 252.55 474.016 248.38 478.554C247.358 479.666 246.188 480.849 244.512 480.283C242.71 479.675 242.879 477.908 242.874 476.459C242.803 452.628 242.811 428.797 242.687 404.966C242.667 401.269 245.555 400.885 247.81 399.753C256.273 395.504 260.685 388.419 260.363 379.231C260.042 370.072 255.135 363.211 246.598 359.379C236.353 354.781 223.831 359.817 218.444 370.582C213.352 380.758 216.863 393.743 226.892 398.631C232.136 401.188 233.441 404.327 233.362 409.793C233.051 431.287 233.161 452.789 233.293 474.287C233.315 477.832 232.472 479.939 229.054 481.709C221.028 485.865 217.936 495.547 221.452 503.645C225.209 512.299 234.626 516.77 243.265 514.001C251.786 511.27 257.457 502.165 255.162 493.582C253.899 488.86 255.149 485.991 258.319 482.615C286.595 452.491 314.688 422.195 342.833 391.948C343.06 391.704 343.231 391.4 343.484 391.19C346.912 388.343 350.869 391.907 354.472 390.244C358.505 388.383 360.882 389.995 363.33 393.713C372.488 407.625 382.137 421.213 391.544 434.963C395.239 440.364 395.167 440.409 389.741 444.276C371.02 457.617 352.516 471.267 332.889 483.939Z" fill="#333333"/>
<path d="M365.788 610.788C382.807 593.405 399.594 576.291 416.329 559.125C418.29 557.114 420.122 556.047 423.258 556.377C434.363 557.549 443.701 547.769 442.162 536.692C441.764 533.826 442.469 532.038 444.537 530.181C460.024 516.285 475.455 502.326 490.829 488.306C492.878 486.438 494.691 486.223 497.109 487.445C503.701 490.778 510.552 491.009 517.44 488.474C519.644 487.663 521.188 488.036 522.75 489.741C529.718 497.351 536.715 504.938 543.805 512.435C545.7 514.439 546.052 516.14 544.493 518.562C540.754 524.375 540.637 530.542 543.923 536.534C545.517 539.44 545.116 541.479 543.402 544.218C525.037 573.563 506.585 602.858 489.1 632.743C487.852 634.876 486.156 635.656 484.022 636.288C469.766 640.511 455.154 643.026 440.389 644.042C411.168 646.052 382.206 644.171 353.861 636.159C351.039 635.361 348.006 634.928 344.672 632.21C351.722 625.06 358.632 618.051 365.788 610.788ZM468.436 575.075C462.882 576.313 459.723 580.033 460.423 584.511C461.089 588.767 465.53 592.262 469.734 591.618C473.883 590.983 476.209 588.183 476.551 584.222C476.993 579.098 473.88 576.375 468.436 575.075Z" fill="#333333"/>
<path d="M614.054 452.373C628.462 447.295 632.415 432.648 622.478 421.584C619.944 418.763 619.798 416.526 621.072 413.168C631.464 385.773 641.672 358.307 651.956 330.871C652.116 330.445 652.534 330.116 652.831 329.744C658.955 334.431 665.149 372.632 666.068 397.267C666.943 420.697 663.635 443.754 657.216 466.291C634.006 547.779 581.155 601.438 502.939 631.258C501.196 629.467 502.407 628.57 502.954 627.693C519.087 601.823 535.27 575.983 551.374 550.095C553.147 547.246 554.889 545.829 558.635 546.815C565.62 548.652 573.516 545.172 577.617 538.784C581.944 532.044 582.805 524.693 577.913 518.175C574.598 513.759 574.941 510.454 577.276 506.032C584.975 491.45 592.586 476.812 599.773 461.973C602.743 455.841 605.971 451.197 614.054 452.373Z" fill="#333333"/>
<path d="M472.3 163.58C490.55 167.352 507.714 173.002 524.116 181.004C527.818 182.81 528.772 184.097 526.015 187.881C514.155 204.165 502.556 220.641 491.03 237.164C487.816 241.77 485.126 244.234 478.318 242.86C459.253 239.014 442.832 260.737 450.456 279.404C452.62 284.701 451.478 287.837 448.253 291.741C441.789 299.567 435.702 307.706 429.522 315.764C425.319 321.244 421.975 320.906 419.271 314.428C413.439 300.45 407.766 286.406 401.945 272.423C400.945 270.019 401.119 268.279 402.853 266.115C409.936 257.275 408.877 247.775 399.86 240.918C396.817 238.605 397.359 236.127 398.017 233.437C401.536 219.063 405.167 204.717 408.752 190.359C411.088 181.004 413.477 171.662 415.706 162.281C416.462 159.1 417.836 157.606 421.448 157.639C438.484 157.795 455.299 159.615 472.3 163.58Z" fill="#333333"/>
<path d="M593.884 229.117C601.499 236.846 608.407 244.728 615.084 252.827C617.15 255.333 617.255 257.008 614.682 259.436C590.346 282.403 565.166 304.412 539.675 326.078C536.865 328.466 535.144 328.263 532.712 325.539C522.179 313.743 511.512 302.065 500.738 290.49C498.129 287.687 497.415 285.451 499.442 281.791C505.019 271.724 503.596 261.844 497.008 252.758C495.194 250.255 495.088 248.545 496.792 246.166C509.871 227.898 522.951 209.629 535.865 191.244C538.139 188.007 540.222 188.533 542.976 190.178C561.337 201.147 578.605 213.538 593.884 229.117ZM564.839 254.522C566.124 254.261 567.486 254.19 568.68 253.705C572.546 252.137 574.208 249.219 573.673 245.035C573.16 241.016 570.619 238.998 566.965 238.012C563.003 236.944 560.633 239.342 558.759 242.146C555.804 246.566 557.646 250.525 564.839 254.522Z" fill="#333333"/>
<path d="M141.585 375.167C127.473 375.208 113.818 375.401 100.173 375.11C95.6935 375.014 93.4495 376.502 91.4409 380.518C79.4852 404.424 50.4104 414.175 26.6672 402.533C7.7007 393.234 -1.99408 374.082 0.767253 351.369C3.05556 332.546 18.7708 315.847 38.0664 311.736C66.7557 305.623 92.892 324.424 96.247 353.771C96.648 357.279 98.404 357.716 101.209 357.706C114.195 357.662 127.18 357.685 140.166 357.702C146.32 357.71 146.275 357.722 145.568 363.679C145.294 365.989 145.342 368.335 145.111 370.652C144.911 372.654 144.662 374.734 141.585 375.167Z" fill="#333333"/>
<path d="M771.908 604.222C738.253 614.477 712.272 589.023 712.761 561.729C712.915 553.14 712.874 553.201 704.801 550.008C693.343 545.476 681.962 540.746 670.467 536.312C666.96 534.96 666.238 533.252 667.94 529.941C674.792 516.61 671.182 516.58 685.976 522.622C696.303 526.84 706.797 530.656 716.841 535.537C719.676 536.915 721.221 535.97 723.037 533.619C739.797 511.917 771.257 511.626 788.834 529.028C812.796 552.752 804.271 591.784 771.908 604.222Z" fill="#333333"/>
<path d="M379.32 173.358C381.846 170.227 384.142 167.37 386.437 164.512C390.705 159.197 398.316 156.89 405.762 158.79C405.56 164.276 403.596 169.435 402.299 174.706C397.453 194.403 392.41 214.052 387.602 233.758C387.021 236.139 385.972 237.364 383.811 238.429C372.83 243.843 369.765 253.77 375.739 264.608C376.98 266.86 377.196 268.727 376.394 271.158C368.519 295.013 361.298 319.071 354.432 343.235C353.774 345.554 353.373 347.557 350.119 347.69C347.181 347.81 344.944 348.179 343.079 344.953C334.746 330.535 326.135 316.277 317.562 301.999C316.019 299.429 316.054 297.861 318.858 295.903C333.266 285.841 337.529 264.071 327.695 249.594C324.851 245.408 325.521 242.84 328.336 239.239C345.366 217.457 362.194 195.518 379.32 173.358Z" fill="#333333"/>
<path d="M61.2668 172.285C74.2587 158.989 89.5953 155.205 106.753 160.579C123.353 165.779 132.625 177.839 135.836 194.786C136.761 199.669 136.218 204.53 134.935 209.112C133.767 213.284 135.268 215.195 138.54 217.08C150.074 223.723 161.54 230.486 172.982 237.286C177.127 239.75 181.136 242.443 185.206 245.033C187.406 246.434 187.938 248.043 186.38 250.422C176.706 265.199 181.455 264.273 166.744 255.528C153.728 247.79 140.74 240.002 127.878 232.012C125.131 230.306 123.568 230.964 121.4 232.799C108.83 243.442 94.3637 246.341 78.8789 241.335C52.005 232.647 41.4752 200.675 57.3833 177.3C58.5045 175.652 59.8058 174.127 61.2668 172.285Z" fill="#333333"/>
<path d="M410.342 429.37C408.072 431.057 406.072 432.511 404.211 433.864C401.937 433.079 401.157 431.294 400.16 429.862C390.269 415.659 380.52 401.358 370.567 387.199C368.695 384.536 368.517 382.482 370.02 379.52C374.842 370.016 373.376 361.095 365.808 353.504C363.619 351.309 363.052 349.29 363.883 346.427C370.701 322.957 377.566 299.502 385.191 276.278C385.743 274.597 385.958 272.439 388.332 272.29C390.473 272.156 391.67 273.683 392.391 275.437C398.332 289.893 404.242 304.361 410.106 318.847C410.984 321.017 410.464 322.741 408.67 324.613C403.708 329.789 402.684 336.147 405.355 342.649C408.193 349.56 413.846 353.186 421.298 353.535C423.653 353.645 425.202 353.843 426.436 356.271C432.991 369.175 439.63 382.041 446.566 394.741C448.621 398.504 447.918 400.64 444.705 403.053C433.265 411.647 421.965 420.428 410.342 429.37Z" fill="#333333"/>
<path d="M831.315 414.932C830.794 436.288 816.711 452.314 794.873 455.79C775.964 458.8 757.083 449.456 749.764 429.94C748.417 426.351 746.523 425.204 742.809 425.252C728.348 425.437 713.883 425.327 698.832 425.327C698.832 420.11 698.615 415.177 698.91 410.275C699.099 407.134 701.955 407.762 703.998 407.757C716.486 407.723 728.977 407.607 741.459 407.878C745.796 407.973 747.961 406.784 749.206 402.339C753.992 385.253 770.07 372.623 790.944 373.119C810.877 373.593 826.363 386.509 830.687 405.517C831.363 408.487 831.262 411.467 831.315 414.932Z" fill="#333333"/>
<path d="M251.864 118.276C231.055 118.248 213.611 104.408 209.934 85.3822C206.105 65.5679 216.04 46.2569 234.457 39.1291C252.917 31.9844 273.271 36.2289 285.484 55.3147C295.347 70.7271 292.818 92.5718 278.974 106.096C276.971 108.053 276.8 109.371 278.336 111.521C285.399 121.4 292.422 131.309 299.359 141.277C304.06 148.03 303.986 148.081 296.804 151.73C288.5 155.949 288.514 155.939 283.06 148.286C277.652 140.697 271.841 133.365 266.91 125.48C263.322 119.743 259.687 115.655 251.864 118.276Z" fill="#333333"/>
<path d="M551.666 712.835C550.706 700.251 554.221 689.654 562.625 680.841C564.704 678.661 564.356 676.956 562.843 674.743C558.148 667.872 553.699 660.83 548.926 654.015C546.76 650.924 546.598 649.222 550.39 647.156C561.46 641.128 561.39 640.931 568.669 651.205C572.134 656.094 575.554 661.019 578.834 666.033C580.368 668.379 581.986 669.237 584.974 668.836C602.521 666.486 616.961 671.824 626.594 687.214C634.721 700.197 635.688 713.961 628.319 727.545C620.739 741.52 608.58 748.612 592.624 749.406C567.413 750.66 551.977 728.837 551.666 712.835Z" fill="#333333"/>
<path d="M498 361.01C485.39 371.144 473.014 381.004 460.741 390.99C458.135 393.111 456.453 392.936 454.907 389.945C448.253 377.072 441.575 364.211 434.84 351.38C433.765 349.332 434.079 347.724 435.312 345.853C438.9 340.405 439.113 334.581 436.429 328.735C435.304 326.284 435.583 324.42 437.224 322.335C444.33 313.302 451.378 304.224 458.324 295.068C460.086 292.745 461.963 293.163 464.024 294.138C471.552 297.699 479.081 297.992 486.605 294.2C488.732 293.128 490.369 293.584 491.932 295.292C503.95 308.427 515.998 321.533 528.75 335.425C518.35 344.077 508.311 352.429 498 361.01Z" fill="#333333"/>
<path d="M451.952 740.229C464.653 764.042 451.127 791.26 426.245 796.797C407.483 800.973 387.966 789.766 382.499 771.547C376.442 751.361 385.474 731.229 404.077 724.361C408.618 722.685 410.218 720.389 410.075 715.647C409.758 705.164 410.049 694.664 409.905 684.173C409.854 680.453 410.934 678.835 415.023 678.828C427.338 678.809 427.336 678.65 427.33 691.062C427.326 700.055 427.389 709.05 427.294 718.042C427.266 720.731 428.049 722.258 430.842 723.124C439.968 725.956 446.929 731.646 451.952 740.229Z" fill="#333333"/>
<path d="M390.637 13.7195C405.095 -1.96513 427.639 -3.79867 441.753 9.28983C459.675 25.9104 454.97 55.2324 432.412 66.0107C428.433 67.912 427.179 70.0856 427.245 74.3078C427.472 88.9497 427.181 103.6 427.401 118.242C427.464 122.478 426.086 123.834 421.963 123.415C418.527 123.067 415.028 123.344 411.275 123.344C410.34 119.991 410.028 116.739 410.023 113.439C410.002 100.125 409.923 86.8108 410.006 73.4977C410.025 70.4845 409.272 68.7363 406.135 67.5618C383.001 58.9009 377.199 32.5077 390.637 13.7195Z" fill="#333333"/>
<path d="M313.284 235.645C301.294 229.735 289.746 230.235 278.58 236.625C275.651 238.302 273.908 238.117 271.778 235.679C266.872 230.062 261.793 224.598 256.372 218.617C290.293 187.49 330.136 170.48 374.086 162.095C374.37 162.468 374.654 162.841 374.938 163.215C371.338 167.879 367.774 172.572 364.132 177.204C349.205 196.188 334.238 215.142 319.333 234.144C317.74 236.174 316.25 237.746 313.284 235.645Z" fill="#333333"/>
<path d="M578.037 85.9282C573.81 88.8356 570.043 92.4814 564.708 93.5398C562.098 94.0576 562.017 96.7421 561.348 98.6915C555.781 114.906 550.205 131.118 544.865 147.408C543.444 151.743 541.888 152.836 537.465 150.514C527.69 145.38 527.572 145.632 531.186 135.366C535.665 122.646 540.045 109.889 544.638 97.2101C545.813 93.9678 545.985 91.8993 542.333 89.9674C535.819 86.5215 531.828 80.6974 530.302 73.5498C529.411 69.3774 527.293 67.3295 523.277 66.2805C516.076 64.3992 515.953 63.7057 518.35 56.5699C519.174 54.1168 520.409 53.322 522.754 54.0596C524.66 54.659 526.6 55.1972 528.425 55.9933C530.891 57.0695 532.317 56.31 533.782 54.1218C541.11 43.1796 554.007 38.7874 566.126 42.9139C578.303 47.0596 585.05 57.7161 584.344 71.2995C584.124 75.5324 581.695 78.7651 579.893 82.9993C579.102 84.3689 578.569 85.1485 578.037 85.9282Z" fill="#333333"/>
<path d="M284.532 740.613C279.827 737.976 276.202 738.484 271.529 741.071C258.745 748.15 242.516 742.918 235.167 730.278C228.188 718.275 232.018 702.155 243.876 694.017C247.657 691.422 252.043 690.115 256.532 689.794C259.676 689.568 261.28 688.135 262.627 685.562C269.114 673.175 275.844 660.914 282.187 648.455C284.339 644.228 286.593 643.932 290.416 646.179C299.833 651.717 299.999 651.661 294.889 661.236C289.637 671.074 284.243 680.838 278.731 690.532C277.07 693.455 276.684 695.394 279.372 698.259C286.046 705.375 288.533 713.977 285.996 723.635C285.332 726.161 285.185 728.019 287.973 729.419C296.562 733.732 296.526 733.804 291.424 742.678C288.999 742.957 287.039 741.499 284.532 740.613Z" fill="#333333"/>
<path d="M199.427 297.524C211.271 271.665 226.786 248.763 246.206 228.489C248.415 226.183 249.948 226.416 251.924 228.575C256.533 233.611 261.22 238.575 265.925 243.519C267.53 245.206 267.681 246.697 266.486 248.835C262.147 256.601 260.024 264.871 261.958 273.793C262.576 276.647 260.785 277.637 258.756 278.634C241.726 287.002 224.695 295.371 207.68 303.77C203.71 305.729 199.796 307.802 195.217 310.151C195.574 305.152 198.021 301.701 199.427 297.524Z" fill="#333333"/>
<path d="M534.709 488.258C533.385 486.732 532.408 485.349 531.18 484.245C528.615 481.939 528.646 479.505 530.239 476.676C530.954 475.406 531.72 473.859 531.629 472.493C531.118 464.827 535.52 462.184 542.165 460.287C557.826 455.819 573.285 450.644 588.821 445.74C590.918 445.079 593.122 444.216 594.815 446.282C596.374 448.185 595.099 450.023 594.172 451.809C585.211 469.077 576.265 486.352 567.321 503.629C564.326 509.415 555.898 510.77 551.296 506.017C545.746 500.283 540.385 494.365 534.709 488.258Z" fill="#333333"/>
<path d="M716.282 310.964C725.496 307.521 733.628 309.973 737.436 317.057C741.125 323.919 739.506 332.236 733.577 336.879C726.427 342.479 715.959 341.401 710.829 334.536C705.318 327.161 707.57 316.857 716.282 310.964Z" fill="#333333"/>
<path d="M105.626 437.903C116.831 437.247 122.658 440.97 124.395 449.535C125.917 457.042 121.301 464.526 113.677 466.911C106.316 469.214 98.6627 465.582 95.6903 458.375C92.6542 451.013 95.5458 442.749 102.451 439.135C103.328 438.676 104.287 438.37 105.626 437.903Z" fill="#333333"/>
<path d="M641.398 602.879C649.564 606.16 653.568 612.837 652.079 620.085C650.654 627.017 644.385 631.585 636.609 631.355C628.81 631.125 623.269 625.559 623.014 617.701C622.771 610.208 628.318 603.518 635.521 602.762C637.321 602.574 639.161 602.772 641.398 602.879Z" fill="#333333"/>
<path d="M651.193 193.821C660.534 192.125 665.713 195.237 667.7 203.415C669.167 209.451 664.961 216.552 658.643 218.706C651.637 221.095 644.87 218.113 642.224 211.47C639.355 204.27 642.531 197.776 651.193 193.821Z" fill="#333333"/>
<path d="M165.342 578.203C156.477 575.238 152.604 568.355 155.164 560.806C157.561 553.739 164.694 550.37 172.168 552.721C177.625 554.438 180.261 558.416 180.767 563.819C181.268 569.167 178.475 573.048 174.281 575.942C171.768 577.676 168.873 578.501 165.342 578.203Z" fill="#333333"/>
<path d="M499.255 681.828C503.378 688.615 502.907 694.144 498.08 698.836C494.206 702.601 488.345 703.337 483.842 700.623C477.657 696.894 476.017 688.725 480.262 682.792C484.731 676.544 492.305 676.035 499.255 681.828Z" fill="#333333"/>
<path d="M204.759 161.44C215.671 158.303 224.272 165.379 221.864 175.051C220.473 180.633 216.397 184.11 210.967 184.346C204.651 184.621 200.526 182.161 198.734 177.05C196.593 170.943 198.503 165.757 204.759 161.44Z" fill="#333333"/>
<path d="M351.255 707.846C344.487 708.558 340.181 706.556 337.836 701.911C335.546 697.377 336.296 691.354 339.58 687.908C343.334 683.967 348.547 682.714 353.287 684.788C357.927 686.819 359.949 690.816 360.174 695.549C360.462 701.62 357.132 705.515 351.255 707.846Z" fill="#333333"/>
<path d="M472.01 112.224C470.997 100.774 476.983 94.0915 485.982 96.0766C491.064 97.1975 494.663 101.362 495.103 106.629C495.545 111.918 492.103 117.285 487.03 119.216C482.437 120.965 477.116 119.519 473.982 115.594C473.261 114.691 472.75 113.619 472.01 112.224Z" fill="#333333"/>
<path d="M118.432 299.662C113.23 293.754 113.214 286.777 118.088 282.676C122.128 279.277 129.825 280.111 133.343 284.331C136.372 287.963 136.492 293.031 133.638 296.76C129.674 301.94 124.975 302.925 118.432 299.662Z" fill="#333333"/>
<path d="M767.525 307.452C765.53 301.419 769.094 297.3 775.048 298.198C776.45 298.41 776.986 299.32 777.301 300.484C777.774 302.237 778.218 303.998 778.634 305.766C780.016 311.638 777.225 314.914 771.333 314.105C767.684 313.603 768.785 309.982 767.525 307.452Z" fill="#333333"/>
<path d="M66.8296 283.383C61.767 282.506 60.8028 279.921 62.6998 275.829C63.1848 274.783 63.408 273.617 63.784 272.518C64.7312 269.747 65.5561 266.937 69.6076 268.711C72.9243 270.163 77.1654 270.74 74.5785 276.138C73.9427 277.465 73.6466 278.98 73.3531 280.44C72.6096 284.139 70.5708 285.095 66.8296 283.383Z" fill="#333333"/>
<path d="M771.261 486.323C768.273 485.777 768.487 483.857 768.804 482.009C769.14 480.05 769.513 478.076 770.128 476.193C770.672 474.529 770.899 472.008 773.036 472.002C775.941 471.994 779.029 472.223 781.62 473.865C782.498 474.421 782.316 475.691 782.061 476.66C781.64 478.264 781.086 479.833 780.621 481.427C778.63 488.247 778.631 488.25 771.261 486.323Z" fill="#333333"/>
<path d="M773.587 504.481C772.555 507.948 771.978 511.041 767.236 509.222C763.47 507.777 760.261 506.668 762.622 501.712C763.042 500.831 763.189 499.821 763.484 498.878C765.116 493.663 771.154 492.089 774.654 496.221C776.863 498.829 774.01 501.46 773.587 504.481Z" fill="#333333"/>
<path d="M768.503 290.609C764.611 292.583 762.516 291.521 761.713 287.623C761.481 286.494 761.069 285.375 760.573 284.331C758.27 279.492 761.152 277.982 765.072 276.51C769.54 274.832 770.731 277.105 771.404 280.718C771.615 281.853 771.943 283.007 772.451 284.037C774.403 287.99 772.98 289.967 768.503 290.609Z" fill="#333333"/>
<path d="M486.478 756.351C485.907 755.517 485.602 754.922 485.419 754.292C483.207 746.684 486.995 742.24 494.842 743.584C498.628 744.232 497.566 747.992 498.26 750.486C498.802 752.432 498.945 754.738 496.099 755.121C492.986 755.54 490.023 756.908 486.478 756.351Z" fill="#333333"/>
<path d="M63.3848 460.83C64.8533 465.166 65.0433 468.349 59.6307 469.085C56.5852 469.499 53.8417 470.499 52.7913 466.066C50.5633 456.661 50.5177 456.973 55.8545 455.302C60.9059 453.719 62.9112 455.67 63.3848 460.83Z" fill="#333333"/>
<path d="M349.201 56.4994C347.852 56.8413 346.893 57.0968 345.928 57.3216C339.933 58.7165 337.152 56.3159 337.263 50.0009C337.292 48.3623 338.089 47.5513 339.464 47.1444C341.206 46.6294 342.956 46.047 344.744 45.8152C346.806 45.5478 349.96 43.3429 350.626 46.6894C351.233 49.7344 353.801 53.6367 349.201 56.4994Z" fill="#333333"/>
<path d="M347.02 745.826C350.964 746.788 355.783 746.468 353.532 752.662C352.799 754.68 353.894 758.182 350.701 758.173C347.174 758.164 342.908 758.128 340.433 755.43C338.361 753.172 339.796 749.565 340.851 746.859C341.92 744.117 344.629 745.974 347.02 745.826Z" fill="#333333"/>
<path d="M59.1485 435.449C59.3664 437.174 59.4255 438.503 59.6474 439.804C60.7462 446.247 58.6628 448.532 52.1276 448.186C50.5052 448.1 49.6107 447.347 49.3261 445.934C48.7403 443.024 48.2586 440.092 47.8309 437.154C47.646 435.885 48.2104 434.681 49.4933 434.462C52.7024 433.915 56.0644 431.868 59.1485 435.449Z" fill="#333333"/>
<path d="M765.278 262.866C767.36 269.396 761.506 268.635 758.806 270.258C755.583 272.196 755.191 268.867 754.328 266.842C754.003 266.08 753.555 265.357 753.334 264.568C752.827 262.76 750.8 260.778 752.645 259.098C754.959 256.992 758.08 255.081 761.115 255.62C764.19 256.165 763.864 260.116 765.278 262.866Z" fill="#333333"/>
<path d="M514.208 738.462C518.992 740.022 517.915 744.056 518.124 747.224C518.315 750.11 515.311 749.978 513.353 750.599C509.672 751.767 506.154 753.444 504.538 747.466C503.275 742.794 504.313 740.53 508.995 739.748C510.628 739.475 512.217 738.935 514.208 738.462Z" fill="#333333"/>
<path d="M312.034 747.914C307.705 749.657 303.825 747.823 300.743 745.884C297.691 743.964 300.398 740.502 301.104 737.767C301.641 735.688 302.805 735.013 305.148 735.46C314.403 737.225 315.035 738.171 312.034 747.914Z" fill="#333333"/>
<path d="M82.5056 256.4C82.0089 257.501 81.5446 258.23 81.3745 259.021C80.3645 263.722 77.973 263.938 73.7842 262.324C69.0357 260.494 69.332 258.058 71.1011 254.332C74.3116 247.571 74.5071 247.552 80.8679 250.077C84.4481 251.499 84.4785 253.337 82.5056 256.4Z" fill="#333333"/>
<path d="M478.231 755.969C476.908 758.893 469.47 761.695 466.763 760.25C463.524 758.521 464.182 754.907 463.815 751.909C463.688 750.869 464.279 750.018 465.414 749.72C466.53 749.428 467.627 749.041 468.757 748.828C476.878 747.302 476.88 747.313 478.231 755.969Z" fill="#333333"/>
<path d="M325.896 741.379C327.081 741.631 327.964 741.614 328.704 741.931C330.453 742.68 333.366 742.025 333.769 744.314C334.314 747.411 333.221 750.675 331.675 753.312C330.444 755.409 328.006 753.737 326.184 753.269C319.003 751.427 318.82 750.806 320.544 743.83C321.335 740.629 322.851 740.147 325.896 741.379Z" fill="#333333"/>
<path d="M659.146 659.267C664.187 657.451 664.72 661.937 666.562 664.247C668.304 666.43 666.061 667.819 664.73 669.201C663.927 670.035 663.058 670.837 662.104 671.487C660.694 672.448 659.628 675.031 657.633 673.749C655.166 672.164 653.059 669.875 652.066 666.968C651.651 665.753 652.737 664.811 653.6 664.036C655.327 662.483 657.11 660.991 659.146 659.267Z" fill="#333333"/>
<path d="M531.902 745.103C527.1 747.376 525.532 745.147 524.138 741.151C522.598 736.735 524.416 735.204 528.165 734.003C535.658 731.604 535.686 731.764 537.709 738.758C539.298 744.252 534.899 743.638 531.902 745.103Z" fill="#333333"/>
<path d="M55.9831 301.089C56.4146 299.246 56.8107 297.81 57.1662 296.365C58.6011 290.532 62.7736 289.106 67.6543 292.712C68.7495 293.521 69.1328 294.374 68.8156 295.657C68.4586 297.101 68.3816 298.655 67.7959 299.992C66.9666 301.884 68.2466 305.516 64.7383 305.279C61.5587 305.064 57.5968 305.642 55.9831 301.089Z" fill="#333333"/>
<path d="M510.705 51.1864C513.109 54.8814 511.054 57.9994 510.033 61.1511C509.607 62.4642 508.155 62.2964 506.997 62.0102C505.873 61.7324 504.781 61.3261 503.665 61.0081C497.803 59.3366 496.423 56.3521 498.914 50.8331C499.566 49.3885 500.577 48.8787 502.094 49.2119C504.842 49.8151 507.595 50.3976 510.705 51.1864Z" fill="#333333"/>
<path d="M309.525 66.6313C305.756 67.4301 301.68 70.8208 299.98 64.6343C299.408 62.5541 297.273 59.8658 299.832 58.3265C302.855 56.5079 306.456 54.2374 309.984 55.2275C312.794 56.0162 312.711 59.8001 313.227 62.4945C313.704 64.9877 312.156 66.0988 309.525 66.6313Z" fill="#333333"/>
<path d="M773.543 333.059C773.124 331.058 773.028 329.361 772.444 327.852C770.978 324.065 772.474 322.237 776.158 321.655C778.266 321.322 781.028 319.274 782.167 322.471C783.449 326.071 785.899 330.406 783.297 333.689C781.574 335.862 777.45 336.317 774.171 334.795C773.855 334.648 773.813 333.912 773.543 333.059Z" fill="#333333"/>
<path d="M491.894 49.8331C491.618 51.546 491.383 52.8482 491.253 54.1609C490.953 57.1866 489.34 58.1428 486.495 57.314C485.703 57.0835 484.888 56.9323 484.08 56.7613C477.992 55.4726 476.389 52.322 478.982 46.6982C479.184 46.2596 479.435 45.7781 479.801 45.4906C481.937 43.8093 490.721 46.6695 491.894 49.8331Z" fill="#333333"/>
<path d="M667.249 652.14C667.708 651.644 667.939 651.405 668.178 651.174C675.154 644.426 676.282 644.615 681.718 653.858C678.496 655.977 677.029 661.552 672.471 660.527C669.867 659.942 665.747 657.167 667.249 652.14Z" fill="#333333"/>
<path d="M208.028 700.034C207.169 699.487 206.612 699.13 206.062 698.761C201.052 695.398 201.356 688.545 207.056 686.283C210.609 684.873 212.61 689.01 215.258 690.694C217.11 691.871 216.593 693.707 215.137 694.868C212.883 696.666 213.305 701.919 208.028 700.034Z" fill="#333333"/>
<path d="M776.552 353.316C775.261 346.896 779.127 343.292 784.96 344.951C786.517 345.395 787.058 346.551 787.12 347.905C787.27 351.165 787.847 354.453 786.959 357.629C777.262 359.898 777.155 359.857 776.552 353.316Z" fill="#333333"/>
<path d="M372.718 751.067C374.791 754.64 374.216 759.031 372.175 760.753C368.863 763.55 364.542 760.395 360.792 759.901C360.506 759.338 360.214 759.039 360.236 758.766C361.013 749.032 361.017 749.033 372.718 751.067Z" fill="#333333"/>
<path d="M323.332 50.9549C330.523 49.1825 330.421 49.2075 331.987 55.5948C332.752 58.7176 332.43 61.1102 328.746 61.1721C325.511 61.2265 320.897 65.8411 319.464 58.5389C318.75 54.9021 317.433 51.5558 323.332 50.9549Z" fill="#333333"/>
<path d="M459.486 42.5684C461.817 41.4696 463.731 42.4535 465.68 42.6499C471.956 43.2826 472.084 43.698 470.844 50.1231C470.225 53.3295 468.922 55.2985 465.598 53.8754C462.679 52.6255 456.242 55.1193 458.4 47.7385C458.858 46.1707 458.923 44.4877 459.486 42.5684Z" fill="#333333"/>
<path d="M751.598 250.356C747.078 253.02 746.764 248.848 745.364 246.882C743.632 244.45 741.115 242.201 745.644 239.329C751.991 235.306 752.017 235.003 755.336 242.138C755.955 243.47 756.525 244.825 757.059 246.036C755.82 248.338 753.547 248.861 751.598 250.356Z" fill="#333333"/>
<path d="M578.167 86.2496C578.569 85.1485 579.102 84.3689 579.786 83.353C583.171 79.2623 590.513 79.4733 592.96 83.8375C594.865 87.2336 590.522 88.7302 589.731 91.4468C589.21 93.2355 587.593 93.3589 586.066 92.4799C583.227 90.8463 580.039 89.6529 578.167 86.2496Z" fill="#333333"/>
<path d="M642.316 685.741C641.625 685.255 641.216 684.955 640.916 684.57C636.494 678.917 637.777 674.383 644.438 671.557C646.902 670.512 648.007 672.237 648.682 673.724C649.656 675.871 653.383 677.703 650.676 680.483C648.462 682.755 646.214 685.428 642.316 685.741Z" fill="#333333"/>
<path d="M216.281 703.246C216.798 702.192 217.202 701.475 217.629 700.772C221.45 694.487 221.302 694.726 227.588 698.744C233.02 702.217 228.358 704.848 227.248 707.697C225.885 711.192 223.451 710.054 221.277 708.539C219.324 707.179 216.644 706.502 216.281 703.246Z" fill="#333333"/>
<path d="M74.2231 507.737C79.3432 509.324 79.0933 514 78.9075 517.26C78.6901 521.073 73.6062 520.164 71.2257 522.176C64.2783 515.334 65.1021 511.255 74.2231 507.737Z" fill="#333333"/>
<path d="M187.994 683.737C188.103 680.631 190.13 678.873 191.843 677.228C195.146 674.056 197.146 677.967 199.403 679.339C201.336 680.513 203.11 682.041 201.049 684.988C196.417 691.611 194.4 691.564 187.994 683.737Z" fill="#333333"/>
<path d="M140.746 161.565C147.677 166.639 147.836 167.15 144.285 171.915C140.261 177.312 136.606 177.066 133.191 171.214C132.531 170.083 132.312 168.937 133.191 168.006C135.419 165.646 137.126 162.681 140.746 161.565Z" fill="#333333"/>
<path d="M366.807 52.9241C363.34 53.1069 359.126 55.9192 358.647 49.8108C358.476 47.6338 356.341 44.7416 358.894 43.4605C361.712 42.0459 365.324 40.9173 368.461 42.0837C371.595 43.2486 370.491 46.9381 371.087 49.493C371.754 52.3584 369 52.2527 366.807 52.9241Z" fill="#333333"/>
<path d="M594.745 95.7532C595.36 92.4103 597.823 90.4543 599.174 87.6147C602.622 87.7809 605.101 89.846 607.795 91.3513C609.353 92.2216 609.598 93.3041 608.742 95.0666C604.871 103.038 603.56 103.172 594.745 95.7532Z" fill="#333333"/>
<path d="M620.412 99.4126C621.986 100.652 623.27 101.672 624.707 102.814C623.637 106.226 621.473 108.63 619.202 111.367C615.778 109.238 611.252 108.277 610.274 104.119C609.713 101.737 612.556 99.4011 614.47 97.6779C616.644 95.7201 618.315 98.2984 620.412 99.4126Z" fill="#333333"/>
<path d="M196.294 123.392C189.958 128.413 189.884 128.418 186.391 123.687C185.322 122.238 183.68 120.613 185.129 118.858C187.196 116.354 189.502 113.248 192.716 112.992C195.456 112.773 196.244 116.487 197.778 118.555C199.261 120.554 198.041 121.913 196.294 123.392Z" fill="#333333"/>
<path d="M67.6901 479.314C68.1766 481.627 68.5575 483.537 68.9842 485.677C67.7126 486.223 66.6946 486.724 65.6332 487.105C59.2293 489.402 54.8052 485.675 56.0165 478.895C56.5727 475.781 59.5814 476.327 61.6236 475.905C64.1273 475.388 67.1521 474.867 67.6901 479.314Z" fill="#333333"/>
<path d="M704.238 619.715C699.545 614.979 705.015 613.359 706.68 610.818C708.585 607.91 710.771 609.122 712.793 611.125C714.068 612.388 715.573 613.418 716.783 614.397C711.697 624.275 710.319 624.834 704.238 619.715Z" fill="#333333"/>
<path d="M210.95 112.773C210.178 113.464 209.68 113.903 209.158 114.31C204.771 117.728 198.66 115.355 198.37 109.723C198.181 106.056 202.372 105.418 204.702 103.567C206.362 102.248 208.023 103.003 208.775 104.747C209.845 107.23 213.56 108.951 210.95 112.773Z" fill="#333333"/>
<path d="M685.526 647.615C684.692 647.016 684.152 646.627 683.662 646.183C678.901 641.865 678.866 641.299 683.287 636.787C684.435 635.617 685.716 634.578 687.123 633.31C690.358 635.005 694.203 637.414 693.529 640.597C692.883 643.649 690.39 647.53 685.526 647.615Z" fill="#333333"/>
<path d="M159.454 155.034C158.368 156.571 157.262 157.781 156.141 158.976C151.898 163.497 149.657 163.263 146.103 158.144C144.952 156.486 145.105 155.286 146.322 153.738C151.734 146.856 154.005 146.99 159.454 155.034Z" fill="#333333"/>
<path d="M183.145 134.001C181.164 135.769 179.454 137.299 177.653 138.912C176.645 138.197 175.783 137.712 175.073 137.061C169.647 132.093 170.838 126.826 177.952 124.302C180.547 123.381 181.538 125.616 182.632 127.065C184.107 129.021 186.731 131.133 183.145 134.001Z" fill="#333333"/>
<path d="M159.009 145.8C157.926 142.541 161.632 136.785 164.95 135.912C166.607 135.476 171.737 140.057 171.554 142.377C171.286 145.771 168.189 147.456 165.941 149.498C164.087 151.182 162.633 149.529 161.329 148.222C160.628 147.519 159.94 146.803 159.009 145.8Z" fill="#333333"/>
<path d="M694.686 624.579C698.177 620.136 700.367 623.083 702.9 625.329C705.727 627.835 705.549 630.005 702.714 632.172C701.129 633.384 700.772 636.784 698.05 635.741C695.472 634.754 693.205 632.694 691.892 630.197C690.571 627.685 693.285 626.502 694.686 624.579Z" fill="#333333"/>
<path d="M46.3987 415.524C47.863 414.175 49.3662 413.907 50.8511 413.894C52.9123 413.877 55.7315 412.664 56.7789 414.958C57.9912 417.613 58.5033 421.392 57.0428 423.624C54.9052 426.889 50.7362 424.971 47.1686 425.444C46.633 422.058 45.4952 419.094 46.3987 415.524Z" fill="#333333"/>
<path d="M721.942 597.163C723.734 598.865 725.282 600.33 726.637 601.614C726.676 603.541 725.427 604.291 724.616 605.285C720.831 609.928 717.495 609.718 713.787 604.857C711.818 602.274 713.807 600.766 715.166 599.325C716.848 597.539 718.05 593.629 721.942 597.163Z" fill="#333333"/>
<path d="M70.8592 502.761C67.5883 503.538 64.1758 506.878 62.3057 501.608C61.5683 499.531 59.6824 497.218 61.6762 495.124C63.6763 493.024 66.6426 492.434 69.4538 492.21C71.1919 492.072 72.0541 493.7 72.2217 495.22C72.4974 497.723 75.1995 500.649 70.8592 502.761Z" fill="#333333"/>
<path d="M630.354 106.911C634.232 107.481 635.851 110.54 638.289 112.505C634.452 118.747 631.18 120.067 627.319 117.446C624.547 115.564 623.806 113.711 626.481 111.15C627.788 109.899 628.869 108.412 630.354 106.911Z" fill="#333333"/>
<path d="M546.868 739.982C540.986 735.914 540.456 730.474 545.294 728.239C547.639 727.156 549.402 727.232 550.436 729.956C550.784 730.873 551.242 731.806 551.866 732.551C554.8 736.054 553.723 738.095 549.607 739.157C548.809 739.363 548.035 739.66 546.868 739.982Z" fill="#333333"/>
<path d="M774.859 459.322C777.774 457.792 780.378 458.978 782.757 459.761C786.814 461.096 783.957 464.013 783.959 466.282C775.233 467.13 772.964 465.462 774.859 459.322Z" fill="#333333"/>
<path d="M177.403 673.004C179.332 671.477 181.002 670.145 182.748 668.923C184.23 667.887 185.476 668.276 186.548 669.713C187.496 670.985 188.23 672.198 186.958 673.657C185.362 675.486 183.757 677.307 181.951 679.365C179.795 677.447 176.477 677.025 177.403 673.004Z" fill="#333333"/>
<path d="M73.7827 531.971C71.9202 524.676 78.4354 528.079 80.4809 525.705C81.0464 529.277 79.2141 531.538 77.1049 533.493C75.7128 534.783 74.7656 533.405 73.7827 531.971Z" fill="#333333"/>
</svg>
